<svg width="168.89" height="170.08" viewBox="0 0 44.69 45" xmlns="http://www.w3.org/2000/svg"><defs><linearGradient id="a" x1="108.1" x2="103.59" y1="147.77" y2="106.76" gradientUnits="userSpaceOnUse"><stop stop-color="#003ca1" offset="0"/><stop stop-color="#12a7ff" offset=".79"/></linearGradient></defs><path d="M107.56 124.69c-.43 0-1.4 1.11-2.9 3.34-1.47 2.2-2.2 3.44-2.2 3.72 0 .29.32.6.95.94.67.33 1.62.9 2.85 1.69 1.22.76 2.01 1.14 2.37 1.14.59 0 1.5-.82 2.72-2.45 1.27-1.64 1.9-2.92 1.9-3.85 0-1-.67-2.02-2.02-3.1-1.34-.95-2.56-1.43-3.67-1.43zm5.51 8.93c-.27 0-.99.67-2.13 2.03-.8.96-1.62 1.94-2.5 2.96a8.38 8.38 0 0 0-2.78-2.33c-1.34-.82-2.33-1.23-2.96-1.23-.4 0-1.44 1.12-3.14 3.35-1.66 2.22-2.5 3.5-2.5 3.85 0 .2.92.81 2.74 1.86 1.85 1.04 2.92 1.56 3.2 1.56 1.22 0 2.92-1.58 5.1-4.74.86.46 1.95 1.17 3.25 2.16.95.7 1.68 1.06 2.2 1.06.63 0 1.68-.75 3.14-2.24 1.42-1.55 2.13-2.85 2.13-3.9 0-.9-.7-1.88-2.13-2.96-1.46-.95-2.67-1.43-3.62-1.43zM127 122.6q1.06 3.12-.27 7t-4.6 8.82q-3.05 4.76-8.57 9.02-3.61 2.74-5.82 2.85-1.33.07-6.34-2.36-4.8-2.6-8.9-4.6-3.9-2.18-6.88-3.93-2.76-1.76-2.83-3.03 2.63-4.42 3.83-6.7 4.01-7.37 6.87-11.65 3.08-4.29 9.47-12.72 4.11 2.16 10.05 5.18 6.15 2.85 9.4 5.53 3.48 2.68 4.59 6.59z" fill="url(#a)" transform="translate(-82.78 -105.3)" stroke-width=".26" aria-label="ู ุด"/></svg>